<svg width="617" height="84" viewBox="0 0 617 84" fill="none" xmlns="http://www.w3.org/2000/svg">
<circle cx="42" cy="42" r="42" fill="black"/>
<path d="M26.2578 23.875H32.2109L40.9766 48.9297L49.7422 23.875H55.6953L43.3672 58H38.5859L26.2578 23.875ZM23.0469 23.875H28.9766L30.0547 48.2969V58H23.0469V23.875ZM52.9766 23.875H58.9297V58H51.8984V48.2969L52.9766 23.875Z" fill="white"/>
<path d="M97.2578 23.875H103.211L111.977 48.9297L120.742 23.875H126.695L114.367 58H109.586L97.2578 23.875ZM94.0469 23.875H99.9766L101.055 48.2969V58H94.0469V23.875ZM123.977 23.875H129.93V58H122.898V48.2969L123.977 23.875ZM150.648 23.875V58H143.641V23.875H150.648ZM161.148 23.875V29.3828H133.305V23.875H161.148ZM182.547 49.0703C182.547 48.4609 182.453 47.9141 182.266 47.4297C182.094 46.9297 181.766 46.4766 181.281 46.0703C180.797 45.6484 180.117 45.2344 179.242 44.8281C178.367 44.4219 177.234 44 175.844 43.5625C174.297 43.0625 172.828 42.5 171.438 41.875C170.062 41.25 168.844 40.5234 167.781 39.6953C166.734 38.8516 165.906 37.875 165.297 36.7656C164.703 35.6562 164.406 34.3672 164.406 32.8984C164.406 31.4766 164.719 30.1875 165.344 29.0312C165.969 27.8594 166.844 26.8594 167.969 26.0312C169.094 25.1875 170.422 24.5391 171.953 24.0859C173.5 23.6328 175.195 23.4062 177.039 23.4062C179.555 23.4062 181.75 23.8594 183.625 24.7656C185.5 25.6719 186.953 26.9141 187.984 28.4922C189.031 30.0703 189.555 31.875 189.555 33.9062H182.57C182.57 32.9062 182.359 32.0312 181.938 31.2812C181.531 30.5156 180.906 29.9141 180.062 29.4766C179.234 29.0391 178.188 28.8203 176.922 28.8203C175.703 28.8203 174.688 29.0078 173.875 29.3828C173.062 29.7422 172.453 30.2344 172.047 30.8594C171.641 31.4688 171.438 32.1562 171.438 32.9219C171.438 33.5 171.578 34.0234 171.859 34.4922C172.156 34.9609 172.594 35.3984 173.172 35.8047C173.75 36.2109 174.461 36.5938 175.305 36.9531C176.148 37.3125 177.125 37.6641 178.234 38.0078C180.094 38.5703 181.727 39.2031 183.133 39.9062C184.555 40.6094 185.742 41.3984 186.695 42.2734C187.648 43.1484 188.367 44.1406 188.852 45.25C189.336 46.3594 189.578 47.6172 189.578 49.0234C189.578 50.5078 189.289 51.8359 188.711 53.0078C188.133 54.1797 187.297 55.1719 186.203 55.9844C185.109 56.7969 183.805 57.4141 182.289 57.8359C180.773 58.2578 179.078 58.4688 177.203 58.4688C175.516 58.4688 173.852 58.25 172.211 57.8125C170.57 57.3594 169.078 56.6797 167.734 55.7734C166.406 54.8672 165.344 53.7109 164.547 52.3047C163.75 50.8984 163.352 49.2344 163.352 47.3125H170.406C170.406 48.375 170.57 49.2734 170.898 50.0078C171.227 50.7422 171.688 51.3359 172.281 51.7891C172.891 52.2422 173.609 52.5703 174.438 52.7734C175.281 52.9766 176.203 53.0781 177.203 53.0781C178.422 53.0781 179.422 52.9062 180.203 52.5625C181 52.2188 181.586 51.7422 181.961 51.1328C182.352 50.5234 182.547 49.8359 182.547 49.0703ZM206.312 23.875H219.039C221.648 23.875 223.891 24.2656 225.766 25.0469C227.656 25.8281 229.109 26.9844 230.125 28.5156C231.141 30.0469 231.648 31.9297 231.648 34.1641C231.648 35.9922 231.336 37.5625 230.711 38.875C230.102 40.1719 229.234 41.2578 228.109 42.1328C227 42.9922 225.695 43.6797 224.195 44.1953L221.969 45.3672H210.906L210.859 39.8828H219.086C220.32 39.8828 221.344 39.6641 222.156 39.2266C222.969 38.7891 223.578 38.1797 223.984 37.3984C224.406 36.6172 224.617 35.7109 224.617 34.6797C224.617 33.5859 224.414 32.6406 224.008 31.8438C223.602 31.0469 222.984 30.4375 222.156 30.0156C221.328 29.5938 220.289 29.3828 219.039 29.3828H213.344V58H206.312V23.875ZM225.391 58L217.609 42.7891L225.039 42.7422L232.914 57.6719V58H225.391ZM235.562 45.5781V45.0859C235.562 43.2266 235.828 41.5156 236.359 39.9531C236.891 38.375 237.664 37.0078 238.68 35.8516C239.695 34.6953 240.945 33.7969 242.43 33.1562C243.914 32.5 245.617 32.1719 247.539 32.1719C249.461 32.1719 251.172 32.5 252.672 33.1562C254.172 33.7969 255.43 34.6953 256.445 35.8516C257.477 37.0078 258.258 38.375 258.789 39.9531C259.32 41.5156 259.586 43.2266 259.586 45.0859V45.5781C259.586 47.4219 259.32 49.1328 258.789 50.7109C258.258 52.2734 257.477 53.6406 256.445 54.8125C255.43 55.9688 254.18 56.8672 252.695 57.5078C251.211 58.1484 249.508 58.4688 247.586 58.4688C245.664 58.4688 243.953 58.1484 242.453 57.5078C240.969 56.8672 239.711 55.9688 238.68 54.8125C237.664 53.6406 236.891 52.2734 236.359 50.7109C235.828 49.1328 235.562 47.4219 235.562 45.5781ZM242.312 45.0859V45.5781C242.312 46.6406 242.406 47.6328 242.594 48.5547C242.781 49.4766 243.078 50.2891 243.484 50.9922C243.906 51.6797 244.453 52.2188 245.125 52.6094C245.797 53 246.617 53.1953 247.586 53.1953C248.523 53.1953 249.328 53 250 52.6094C250.672 52.2188 251.211 51.6797 251.617 50.9922C252.023 50.2891 252.32 49.4766 252.508 48.5547C252.711 47.6328 252.812 46.6406 252.812 45.5781V45.0859C252.812 44.0547 252.711 43.0859 252.508 42.1797C252.32 41.2578 252.016 40.4453 251.594 39.7422C251.188 39.0234 250.648 38.4609 249.977 38.0547C249.305 37.6484 248.492 37.4453 247.539 37.4453C246.586 37.4453 245.773 37.6484 245.102 38.0547C244.445 38.4609 243.906 39.0234 243.484 39.7422C243.078 40.4453 242.781 41.2578 242.594 42.1797C242.406 43.0859 242.312 44.0547 242.312 45.0859ZM278.734 51.9297V32.6406H285.484V58H279.133L278.734 51.9297ZM279.484 46.7266L281.477 46.6797C281.477 48.3672 281.281 49.9375 280.891 51.3906C280.5 52.8281 279.914 54.0781 279.133 55.1406C278.352 56.1875 277.367 57.0078 276.18 57.6016C274.992 58.1797 273.594 58.4688 271.984 58.4688C270.75 58.4688 269.609 58.2969 268.562 57.9531C267.531 57.5938 266.641 57.0391 265.891 56.2891C265.156 55.5234 264.578 54.5469 264.156 53.3594C263.75 52.1562 263.547 50.7109 263.547 49.0234V32.6406H270.297V49.0703C270.297 49.8203 270.383 50.4531 270.555 50.9688C270.742 51.4844 271 51.9062 271.328 52.2344C271.656 52.5625 272.039 52.7969 272.477 52.9375C272.93 53.0781 273.43 53.1484 273.977 53.1484C275.367 53.1484 276.461 52.8672 277.258 52.3047C278.07 51.7422 278.641 50.9766 278.969 50.0078C279.312 49.0234 279.484 47.9297 279.484 46.7266ZM305.617 52.4688V22H312.414V58H306.297L305.617 52.4688ZM289.586 45.625V45.1328C289.586 43.1953 289.805 41.4375 290.242 39.8594C290.68 38.2656 291.32 36.8984 292.164 35.7578C293.008 34.6172 294.047 33.7344 295.281 33.1094C296.516 32.4844 297.922 32.1719 299.5 32.1719C300.984 32.1719 302.281 32.4844 303.391 33.1094C304.516 33.7344 305.469 34.625 306.25 35.7812C307.047 36.9219 307.688 38.2734 308.172 39.8359C308.656 41.3828 309.008 43.0781 309.227 44.9219V46C309.008 47.7656 308.656 49.4062 308.172 50.9219C307.688 52.4375 307.047 53.7656 306.25 54.9062C305.469 56.0312 304.516 56.9062 303.391 57.5312C302.266 58.1562 300.953 58.4688 299.453 58.4688C297.875 58.4688 296.469 58.1484 295.234 57.5078C294.016 56.8672 292.984 55.9688 292.141 54.8125C291.312 53.6562 290.68 52.2969 290.242 50.7344C289.805 49.1719 289.586 47.4688 289.586 45.625ZM296.336 45.1328V45.625C296.336 46.6719 296.414 47.6484 296.57 48.5547C296.742 49.4609 297.016 50.2656 297.391 50.9688C297.781 51.6562 298.281 52.1953 298.891 52.5859C299.516 52.9609 300.273 53.1484 301.164 53.1484C302.32 53.1484 303.273 52.8906 304.023 52.375C304.773 51.8438 305.344 51.1172 305.734 50.1953C306.141 49.2734 306.375 48.2109 306.438 47.0078V43.9375C306.391 42.9531 306.25 42.0703 306.016 41.2891C305.797 40.4922 305.469 39.8125 305.031 39.25C304.609 38.6875 304.078 38.25 303.438 37.9375C302.812 37.625 302.07 37.4688 301.211 37.4688C300.336 37.4688 299.586 37.6719 298.961 38.0781C298.336 38.4688 297.828 39.0078 297.438 39.6953C297.062 40.3828 296.781 41.1953 296.594 42.1328C296.422 43.0547 296.336 44.0547 296.336 45.1328ZM324.812 22V58H318.039V22H324.812ZM329.312 45.5781V45.0859C329.312 43.2266 329.578 41.5156 330.109 39.9531C330.641 38.375 331.414 37.0078 332.43 35.8516C333.445 34.6953 334.695 33.7969 336.18 33.1562C337.664 32.5 339.367 32.1719 341.289 32.1719C343.211 32.1719 344.922 32.5 346.422 33.1562C347.922 33.7969 349.18 34.6953 350.195 35.8516C351.227 37.0078 352.008 38.375 352.539 39.9531C353.07 41.5156 353.336 43.2266 353.336 45.0859V45.5781C353.336 47.4219 353.07 49.1328 352.539 50.7109C352.008 52.2734 351.227 53.6406 350.195 54.8125C349.18 55.9688 347.93 56.8672 346.445 57.5078C344.961 58.1484 343.258 58.4688 341.336 58.4688C339.414 58.4688 337.703 58.1484 336.203 57.5078C334.719 56.8672 333.461 55.9688 332.43 54.8125C331.414 53.6406 330.641 52.2734 330.109 50.7109C329.578 49.1328 329.312 47.4219 329.312 45.5781ZM336.062 45.0859V45.5781C336.062 46.6406 336.156 47.6328 336.344 48.5547C336.531 49.4766 336.828 50.2891 337.234 50.9922C337.656 51.6797 338.203 52.2188 338.875 52.6094C339.547 53 340.367 53.1953 341.336 53.1953C342.273 53.1953 343.078 53 343.75 52.6094C344.422 52.2188 344.961 51.6797 345.367 50.9922C345.773 50.2891 346.07 49.4766 346.258 48.5547C346.461 47.6328 346.562 46.6406 346.562 45.5781V45.0859C346.562 44.0547 346.461 43.0859 346.258 42.1797C346.07 41.2578 345.766 40.4453 345.344 39.7422C344.938 39.0234 344.398 38.4609 343.727 38.0547C343.055 37.6484 342.242 37.4453 341.289 37.4453C340.336 37.4453 339.523 37.6484 338.852 38.0547C338.195 38.4609 337.656 39.0234 337.234 39.7422C336.828 40.4453 336.531 41.2578 336.344 42.1797C336.156 43.0859 336.062 44.0547 336.062 45.0859ZM369.906 32.6406V37.4219H355.141V32.6406H369.906ZM358.797 26.3828H365.547V50.3594C365.547 51.0938 365.641 51.6562 365.828 52.0469C366.031 52.4375 366.328 52.7109 366.719 52.8672C367.109 53.0078 367.602 53.0781 368.195 53.0781C368.617 53.0781 368.992 53.0625 369.32 53.0312C369.664 52.9844 369.953 52.9375 370.188 52.8906L370.211 57.8594C369.633 58.0469 369.008 58.1953 368.336 58.3047C367.664 58.4141 366.922 58.4688 366.109 58.4688C364.625 58.4688 363.328 58.2266 362.219 57.7422C361.125 57.2422 360.281 56.4453 359.688 55.3516C359.094 54.2578 358.797 52.8203 358.797 51.0391V26.3828ZM388.75 51.9297V32.6406H395.5V58H389.148L388.75 51.9297ZM389.5 46.7266L391.492 46.6797C391.492 48.3672 391.297 49.9375 390.906 51.3906C390.516 52.8281 389.93 54.0781 389.148 55.1406C388.367 56.1875 387.383 57.0078 386.195 57.6016C385.008 58.1797 383.609 58.4688 382 58.4688C380.766 58.4688 379.625 58.2969 378.578 57.9531C377.547 57.5938 376.656 57.0391 375.906 56.2891C375.172 55.5234 374.594 54.5469 374.172 53.3594C373.766 52.1562 373.562 50.7109 373.562 49.0234V32.6406H380.312V49.0703C380.312 49.8203 380.398 50.4531 380.57 50.9688C380.758 51.4844 381.016 51.9062 381.344 52.2344C381.672 52.5625 382.055 52.7969 382.492 52.9375C382.945 53.0781 383.445 53.1484 383.992 53.1484C385.383 53.1484 386.477 52.8672 387.273 52.3047C388.086 51.7422 388.656 50.9766 388.984 50.0078C389.328 49.0234 389.5 47.9297 389.5 46.7266ZM407.406 38.1719V58H400.656V32.6406H407.008L407.406 38.1719ZM415.047 32.4766L414.93 38.7344C414.602 38.6875 414.203 38.6484 413.734 38.6172C413.281 38.5703 412.867 38.5469 412.492 38.5469C411.539 38.5469 410.711 38.6719 410.008 38.9219C409.32 39.1562 408.742 39.5078 408.273 39.9766C407.82 40.4453 407.477 41.0156 407.242 41.6875C407.023 42.3594 406.898 43.125 406.867 43.9844L405.508 43.5625C405.508 41.9219 405.672 40.4141 406 39.0391C406.328 37.6484 406.805 36.4375 407.43 35.4062C408.07 34.375 408.852 33.5781 409.773 33.0156C410.695 32.4531 411.75 32.1719 412.938 32.1719C413.312 32.1719 413.695 32.2031 414.086 32.2656C414.477 32.3125 414.797 32.3828 415.047 32.4766ZM430.609 23.875H443.336C445.945 23.875 448.188 24.2656 450.062 25.0469C451.953 25.8281 453.406 26.9844 454.422 28.5156C455.438 30.0469 455.945 31.9297 455.945 34.1641C455.945 35.9922 455.633 37.5625 455.008 38.875C454.398 40.1719 453.531 41.2578 452.406 42.1328C451.297 42.9922 449.992 43.6797 448.492 44.1953L446.266 45.3672H435.203L435.156 39.8828H443.383C444.617 39.8828 445.641 39.6641 446.453 39.2266C447.266 38.7891 447.875 38.1797 448.281 37.3984C448.703 36.6172 448.914 35.7109 448.914 34.6797C448.914 33.5859 448.711 32.6406 448.305 31.8438C447.898 31.0469 447.281 30.4375 446.453 30.0156C445.625 29.5938 444.586 29.3828 443.336 29.3828H437.641V58H430.609V23.875ZM449.688 58L441.906 42.7891L449.336 42.7422L457.211 57.6719V58H449.688ZM459.859 45.5781V45.0859C459.859 43.2266 460.125 41.5156 460.656 39.9531C461.188 38.375 461.961 37.0078 462.977 35.8516C463.992 34.6953 465.242 33.7969 466.727 33.1562C468.211 32.5 469.914 32.1719 471.836 32.1719C473.758 32.1719 475.469 32.5 476.969 33.1562C478.469 33.7969 479.727 34.6953 480.742 35.8516C481.773 37.0078 482.555 38.375 483.086 39.9531C483.617 41.5156 483.883 43.2266 483.883 45.0859V45.5781C483.883 47.4219 483.617 49.1328 483.086 50.7109C482.555 52.2734 481.773 53.6406 480.742 54.8125C479.727 55.9688 478.477 56.8672 476.992 57.5078C475.508 58.1484 473.805 58.4688 471.883 58.4688C469.961 58.4688 468.25 58.1484 466.75 57.5078C465.266 56.8672 464.008 55.9688 462.977 54.8125C461.961 53.6406 461.188 52.2734 460.656 50.7109C460.125 49.1328 459.859 47.4219 459.859 45.5781ZM466.609 45.0859V45.5781C466.609 46.6406 466.703 47.6328 466.891 48.5547C467.078 49.4766 467.375 50.2891 467.781 50.9922C468.203 51.6797 468.75 52.2188 469.422 52.6094C470.094 53 470.914 53.1953 471.883 53.1953C472.82 53.1953 473.625 53 474.297 52.6094C474.969 52.2188 475.508 51.6797 475.914 50.9922C476.32 50.2891 476.617 49.4766 476.805 48.5547C477.008 47.6328 477.109 46.6406 477.109 45.5781V45.0859C477.109 44.0547 477.008 43.0859 476.805 42.1797C476.617 41.2578 476.312 40.4453 475.891 39.7422C475.484 39.0234 474.945 38.4609 474.273 38.0547C473.602 37.6484 472.789 37.4453 471.836 37.4453C470.883 37.4453 470.07 37.6484 469.398 38.0547C468.742 38.4609 468.203 39.0234 467.781 39.7422C467.375 40.4453 467.078 41.2578 466.891 42.1797C466.703 43.0859 466.609 44.0547 466.609 45.0859ZM501.742 50.9922C501.742 50.5078 501.602 50.0703 501.32 49.6797C501.039 49.2891 500.516 48.9297 499.75 48.6016C499 48.2578 497.914 47.9453 496.492 47.6641C495.211 47.3828 494.016 47.0312 492.906 46.6094C491.812 46.1719 490.859 45.6484 490.047 45.0391C489.25 44.4297 488.625 43.7109 488.172 42.8828C487.719 42.0391 487.492 41.0781 487.492 40C487.492 38.9375 487.719 37.9375 488.172 37C488.641 36.0625 489.305 35.2344 490.164 34.5156C491.039 33.7812 492.102 33.2109 493.352 32.8047C494.617 32.3828 496.039 32.1719 497.617 32.1719C499.82 32.1719 501.711 32.5234 503.289 33.2266C504.883 33.9297 506.102 34.8984 506.945 36.1328C507.805 37.3516 508.234 38.7422 508.234 40.3047H501.484C501.484 39.6484 501.344 39.0625 501.062 38.5469C500.797 38.0156 500.375 37.6016 499.797 37.3047C499.234 36.9922 498.5 36.8359 497.594 36.8359C496.844 36.8359 496.195 36.9688 495.648 37.2344C495.102 37.4844 494.68 37.8281 494.383 38.2656C494.102 38.6875 493.961 39.1562 493.961 39.6719C493.961 40.0625 494.039 40.4141 494.195 40.7266C494.367 41.0234 494.641 41.2969 495.016 41.5469C495.391 41.7969 495.875 42.0312 496.469 42.25C497.078 42.4531 497.828 42.6406 498.719 42.8125C500.547 43.1875 502.18 43.6797 503.617 44.2891C505.055 44.8828 506.195 45.6953 507.039 46.7266C507.883 47.7422 508.305 49.0781 508.305 50.7344C508.305 51.8594 508.055 52.8906 507.555 53.8281C507.055 54.7656 506.336 55.5859 505.398 56.2891C504.461 56.9766 503.336 57.5156 502.023 57.9062C500.727 58.2812 499.266 58.4688 497.641 58.4688C495.281 58.4688 493.281 58.0469 491.641 57.2031C490.016 56.3594 488.781 55.2891 487.938 53.9922C487.109 52.6797 486.695 51.3359 486.695 49.9609H493.094C493.125 50.8828 493.359 51.625 493.797 52.1875C494.25 52.75 494.82 53.1562 495.508 53.4062C496.211 53.6562 496.969 53.7812 497.781 53.7812C498.656 53.7812 499.383 53.6641 499.961 53.4297C500.539 53.1797 500.977 52.8516 501.273 52.4453C501.586 52.0234 501.742 51.5391 501.742 50.9922ZM519.438 37.8906V58H512.664V32.6406H519.016L519.438 37.8906ZM518.5 44.4297H516.625C516.625 42.6641 516.836 41.0391 517.258 39.5547C517.695 38.0547 518.328 36.7578 519.156 35.6641C520 34.5547 521.039 33.6953 522.273 33.0859C523.508 32.4766 524.938 32.1719 526.562 32.1719C527.688 32.1719 528.719 32.3438 529.656 32.6875C530.594 33.0156 531.398 33.5391 532.07 34.2578C532.758 34.9609 533.289 35.8828 533.664 37.0234C534.039 38.1484 534.227 39.5 534.227 41.0781V58H527.477V41.8281C527.477 40.6719 527.32 39.7812 527.008 39.1562C526.695 38.5312 526.25 38.0938 525.672 37.8438C525.109 37.5938 524.43 37.4688 523.633 37.4688C522.758 37.4688 521.992 37.6484 521.336 38.0078C520.695 38.3672 520.164 38.8672 519.742 39.5078C519.32 40.1328 519.008 40.8672 518.805 41.7109C518.602 42.5547 518.5 43.4609 518.5 44.4297ZM533.594 43.6562L531.18 43.9609C531.18 42.3047 531.383 40.7656 531.789 39.3438C532.211 37.9219 532.828 36.6719 533.641 35.5938C534.469 34.5156 535.492 33.6797 536.711 33.0859C537.93 32.4766 539.336 32.1719 540.93 32.1719C542.148 32.1719 543.258 32.3516 544.258 32.7109C545.258 33.0547 546.109 33.6094 546.812 34.375C547.531 35.125 548.078 36.1094 548.453 37.3281C548.844 38.5469 549.039 40.0391 549.039 41.8047V58H542.266V41.8047C542.266 40.6328 542.109 39.7422 541.797 39.1328C541.5 38.5078 541.062 38.0781 540.484 37.8438C539.922 37.5938 539.25 37.4688 538.469 37.4688C537.656 37.4688 536.945 37.6328 536.336 37.9609C535.727 38.2734 535.219 38.7109 534.812 39.2734C534.406 39.8359 534.102 40.4922 533.898 41.2422C533.695 41.9766 533.594 42.7812 533.594 43.6562ZM567.953 52.2812V40.9844C567.953 40.1719 567.82 39.4766 567.555 38.8984C567.289 38.3047 566.875 37.8438 566.312 37.5156C565.766 37.1875 565.055 37.0234 564.18 37.0234C563.43 37.0234 562.781 37.1562 562.234 37.4219C561.688 37.6719 561.266 38.0391 560.969 38.5234C560.672 38.9922 560.523 39.5469 560.523 40.1875H553.773C553.773 39.1094 554.023 38.0859 554.523 37.1172C555.023 36.1484 555.75 35.2969 556.703 34.5625C557.656 33.8125 558.789 33.2266 560.102 32.8047C561.43 32.3828 562.914 32.1719 564.555 32.1719C566.523 32.1719 568.273 32.5 569.805 33.1562C571.336 33.8125 572.539 34.7969 573.414 36.1094C574.305 37.4219 574.75 39.0625 574.75 41.0312V51.8828C574.75 53.2734 574.836 54.4141 575.008 55.3047C575.18 56.1797 575.43 56.9453 575.758 57.6016V58H568.938C568.609 57.3125 568.359 56.4531 568.188 55.4219C568.031 54.375 567.953 53.3281 567.953 52.2812ZM568.844 42.5547L568.891 46.375H565.117C564.227 46.375 563.453 46.4766 562.797 46.6797C562.141 46.8828 561.602 47.1719 561.18 47.5469C560.758 47.9062 560.445 48.3281 560.242 48.8125C560.055 49.2969 559.961 49.8281 559.961 50.4062C559.961 50.9844 560.094 51.5078 560.359 51.9766C560.625 52.4297 561.008 52.7891 561.508 53.0547C562.008 53.3047 562.594 53.4297 563.266 53.4297C564.281 53.4297 565.164 53.2266 565.914 52.8203C566.664 52.4141 567.242 51.9141 567.648 51.3203C568.07 50.7266 568.289 50.1641 568.305 49.6328L570.086 52.4922C569.836 53.1328 569.492 53.7969 569.055 54.4844C568.633 55.1719 568.094 55.8203 567.438 56.4297C566.781 57.0234 565.992 57.5156 565.07 57.9062C564.148 58.2812 563.055 58.4688 561.789 58.4688C560.18 58.4688 558.719 58.1484 557.406 57.5078C556.109 56.8516 555.078 55.9531 554.312 54.8125C553.562 53.6562 553.188 52.3438 553.188 50.875C553.188 49.5469 553.438 48.3672 553.938 47.3359C554.438 46.3047 555.172 45.4375 556.141 44.7344C557.125 44.0156 558.352 43.4766 559.82 43.1172C561.289 42.7422 562.992 42.5547 564.93 42.5547H568.844ZM586.562 38.0547V58H579.812V32.6406H586.141L586.562 38.0547ZM585.578 44.4297H583.75C583.75 42.5547 583.992 40.8672 584.477 39.3672C584.961 37.8516 585.641 36.5625 586.516 35.5C587.391 34.4219 588.43 33.6016 589.633 33.0391C590.852 32.4609 592.211 32.1719 593.711 32.1719C594.898 32.1719 595.984 32.3438 596.969 32.6875C597.953 33.0312 598.797 33.5781 599.5 34.3281C600.219 35.0781 600.766 36.0703 601.141 37.3047C601.531 38.5391 601.727 40.0469 601.727 41.8281V58H594.93V41.8047C594.93 40.6797 594.773 39.8047 594.461 39.1797C594.148 38.5547 593.688 38.1172 593.078 37.8672C592.484 37.6016 591.75 37.4688 590.875 37.4688C589.969 37.4688 589.18 37.6484 588.508 38.0078C587.852 38.3672 587.305 38.8672 586.867 39.5078C586.445 40.1328 586.125 40.8672 585.906 41.7109C585.688 42.5547 585.578 43.4609 585.578 44.4297ZM613.984 32.6406V58H607.211V32.6406H613.984ZM606.789 26.0312C606.789 25.0469 607.133 24.2344 607.82 23.5938C608.508 22.9531 609.43 22.6328 610.586 22.6328C611.727 22.6328 612.641 22.9531 613.328 23.5938C614.031 24.2344 614.383 25.0469 614.383 26.0312C614.383 27.0156 614.031 27.8281 613.328 28.4688C612.641 29.1094 611.727 29.4297 610.586 29.4297C609.43 29.4297 608.508 29.1094 607.82 28.4688C607.133 27.8281 606.789 27.0156 606.789 26.0312Z" fill="black"/>
</svg>
